<svg version="1.0" xmlns="http://www.w3.org/2000/svg" width="100%" height="100%" viewBox="0 0 2017.000000 2017.000000" preserveAspectRatio="xMidYMid meet">
	<g transform="translate(0.000000,2017.000000) scale(0.100000,-0.100000)" fill="#ffffff" stroke="#ffffff" stroke-width="500">
		<path fill="#ffffff" stroke="#ffffff" stroke-width="500" d="M1870 18915 c-251 -51 -444 -222 -495 -436 -13 -57 -15 -990 -15
		-8301 0 -6087 3 -8251 11 -8290 46 -212 234 -388 478 -445 73 -17 440 -18
		8266 -18 7895 0 8193 1 8268 18 127 30 229 87 322 181 88 88 125 152 150 258
		13 56 15 1034 15 8289 0 5905 -3 8242 -11 8284 -42 226 -244 411 -506 461
		-108 20 -16382 20 -16483 -1z m16514 -88 c108 -32 187 -78 261 -152 81 -80
		119 -150 134 -246 14 -86 15 -16418 1 -16504 -30 -186 -198 -350 -410 -399
		-58 -14 -946 -16 -8260 -16 l-8195 0 -75 21 c-201 55 -351 201 -389 377 -15
		71 -16 16453 -1 16533 30 157 161 299 336 365 36 13 89 28 117 33 29 5 3662 8
		8237 7 7800 -1 8188 -2 8244 -19z" class="svg-elem-1"></path>
		<path fill="#ffffff" stroke="#ffffff" stroke-width="200" d="M8703 17108 l-33 -9 0 -1139 0 -1140 -805 0 -805 0 0 -40 0 -40 845
		0 845 0 0 1088 0 1087 1696 -3385 1697 -3385 -1696 -3390 -1696 -3390 0 1093
		-1 1092 -845 0 -845 0 0 -40 0 -40 728 0 c401 0 763 -3 805 -6 l77 -7 0 -1137
		0 -1138 37 -7 c21 -4 39 -3 41 2 2 4 261 521 575 1148 l572 1140 165 3 c91 2
		220 0 288 -3 l122 -7 0 -1138 0 -1138 36 -7 c20 -3 40 -3 44 2 4 4 247 517
		540 1138 293 622 537 1136 542 1143 12 14 214 16 466 5 l152 -6 0 -1137 0
		-1138 36 -7 c20 -3 40 -3 44 2 4 4 247 517 540 1138 293 622 537 1136 543
		1143 7 9 74 12 273 12 l264 0 0 -1139 c0 -627 3 -1142 8 -1145 4 -2 23 -7 42
		-10 l35 -7 1645 3487 c905 1918 1644 3489 1643 3493 -1 3 -720 1527 -1598
		3386 -878 1859 -1618 3426 -1645 3482 l-48 101 -41 -10 -41 -10 0 -1139 0
		-1139 -268 0 -269 0 -543 1149 c-309 655 -547 1148 -554 1146 -6 -2 -23 -6
		-38 -9 l-28 -6 0 -1140 0 -1140 -309 0 -308 0 -543 1149 c-302 639 -548 1148
		-554 1146 -6 -2 -23 -6 -38 -9 l-28 -6 0 -1140 0 -1140 -288 0 -287 0 -570
		1141 c-314 627 -574 1144 -580 1148 -5 5 -25 4 -42 -1z m3456 -3594 l1592
		-3370 -1598 -3384 -1598 -3385 -3 1088 -2 1087 -305 0 c-168 0 -305 2 -305 5
		0 3 516 1037 1146 2297 l1146 2293 -1146 2292 c-630 1261 -1146 2295 -1146
		2298 0 3 137 5 305 5 l305 0 0 1088 c0 598 4 1080 9 1072 5 -8 725 -1532 1600
		-3386z m1759 46 c869 -1840 1587 -3361 1597 -3380 l16 -35 -1579 -3345 c-868
		-1840 -1588 -3363 -1600 -3385 l-21 -40 -1 1088 0 1087 -329 0 -328 0 1084
		2297 c891 1887 1083 2301 1075 2317 -5 12 -492 1041 -1081 2289 -589 1247
		-1071 2272 -1071 2277 0 6 117 10 325 10 l325 0 0 1087 c0 597 2 1084 4 1082
		2 -2 715 -1509 1584 -3349z m1748 -90 c975 -2063 1558 -3306 1558 -3325 0 -19
		-561 -1217 -1589 -3395 l-1590 -3364 -3 1082 -2 1082 -291 0 c-273 0 -291 1
		-286 18 3 9 489 1042 1082 2296 592 1253 1074 2284 1072 2290 -3 6 -489 1036
		-1081 2289 -592 1253 -1076 2282 -1076 2288 0 5 114 9 290 9 l290 0 1 1083 1
		1082 33 -70 c18 -38 734 -1553 1591 -3365z" class="svg-elem-2"></path>
		<path fill="#ffffff" stroke-width="50" d="M4795 16986 c-105 -17 -155 -32 -238 -67 -203 -86 -348 -237 -411
		-428 -88 -266 -70 -582 47 -816 127 -255 388 -427 762 -502 128 -25 445 -25
		565 0 270 58 457 164 584 331 139 184 183 372 173 739 -5 159 -11 228 -30 322
		-44 211 -45 214 -81 220 -17 3 -110 16 -206 30 -96 13 -189 27 -205 31 l-31 6
		53 -162 c85 -256 110 -445 78 -594 -43 -204 -176 -339 -384 -392 -60 -15 -253
		-25 -264 -14 -3 3 -8 294 -12 647 l-8 641 -21 6 c-48 14 -293 15 -371 2z m125
		-886 c0 -444 11 -402 -94 -375 -147 38 -281 146 -328 264 -33 82 -32 225 1
		299 55 122 192 193 389 201 l32 1 0 -390z" class="svg-elem-3"></path>
		<path fill="#ffffff" stroke-width="50" d="M5300 13325 c-160 -30 -368 -122 -585 -258 l-100 -63 -6 -59 c-9 -76
		-8 -389 0 -476 l6 -67 83 24 c46 13 173 65 282 114 229 103 317 135 417 148
		149 21 267 -11 555 -149 178 -85 281 -129 341 -143 l27 -6 0 232 c0 128 -3
		270 -7 316 l-6 82 -86 49 c-400 225 -678 303 -921 256z" class="svg-elem-4"></path>
		<path fill="#ffffff" stroke-width="50" d="M2859 12268 c-6 -27 -26 -689 -22 -756 l6 -95 101 -74 c738 -545
		1258 -754 1774 -713 390 30 763 144 1392 423 l185 82 15 85 c10 63 14 166 13
		403 -1 175 -3 321 -6 324 -8 8 -223 -53 -337 -95 -58 -22 -200 -79 -315 -127
		-502 -210 -675 -261 -925 -271 -347 -15 -614 88 -1195 462 -262 169 -424 257
		-587 320 -84 33 -97 37 -99 32z" class="svg-elem-5"></path>
		<path fill="#ffffff" stroke-width="50" d="M4350 8374 c-36 -2 -157 -8 -270 -14 -493 -26 -1150 -83 -1161 -102
		-13 -20 -39 -177 -49 -290 -13 -139 2 -397 25 -456 10 -23 31 -53 47 -67 l30
		-25 596 0 c384 0 806 7 1182 20 322 10 790 24 1040 30 250 6 483 13 516 16
		l62 5 27 140 c27 135 28 147 22 352 -4 117 -12 243 -19 281 -12 65 -15 70 -43
		77 -70 17 -599 31 -1245 34 -382 1 -724 1 -760 -1z" class="svg-elem-6"></path>
		<path fill="#ffffff" stroke-width="50" d="M2907 5011 c-20 -184 -29 -404 -23 -541 7 -180 39 -478 52 -489 5 -4
		36 -30 69 -58 238 -199 483 -342 685 -399 77 -21 124 -27 246 -31 251 -9 403
		25 835 187 134 50 296 106 359 123 104 28 130 31 265 31 145 1 153 0 245 -32
		208 -73 386 -196 611 -423 l147 -148 7 134 c18 335 -6 659 -66 899 l-20 82
		-197 135 c-313 216 -426 278 -585 322 -67 18 -108 22 -227 22 -212 0 -321 -29
		-684 -182 -366 -154 -511 -190 -730 -180 -146 6 -231 29 -373 97 -143 70 -283
		178 -459 356 l-151 153 -6 -58z" class="svg-elem-7"></path>
	</g>
</svg>
